{
  "accessors": [
    {
      "bufferView": 2,
      "componentType": 5126,
      "count": 7950,
      "max": [
        25.08016586303711,
        33.98719024658203,
        0.39456844329833984
      ],
      "min": [
        -22.038761138916016,
        -14.933573722839355,
        -28.729970932006836
      ],
      "type": "VEC3"
    },
    {
      "bufferView": 2,
      "byteOffset": 95400,
      "componentType": 5126,
      "count": 7950,
      "max": [
        0.999783992767334,
        1.0,
        1.0
      ],
      "min": [
        -0.9999673366546631,
        -0.9999744892120361,
        -0.999998927116394
      ],
      "type": "VEC3"
    },
    {
      "bufferView": 3,
      "componentType": 5126,
      "count": 7950,
      "max": [
        0.999841570854187,
        0.9998220801353455,
        0.9999436140060425,
        1.0
      ],
      "min": [
        -0.9998884201049805,
        -0.9970273971557617,
        -0.9999996423721313,
        1.0
      ],
      "type": "VEC4"
    },
    {
      "bufferView": 1,
      "componentType": 5126,
      "count": 7950,
      "max": [
        0.9751232266426086,
        0.9996393322944641
      ],
      "min": [
        0.0003606838872656226,
        0.0003606838872656226
      ],
      "type": "VEC2"
    },
    {
      "bufferView": 0,
      "componentType": 5125,
      "count": 40326,
      "type": "SCALAR"
    }
  ],
  "asset": {
    "extras": {
      "author": "gorzi (https://sketchfab.com/gorzi90)",
      "license": "CC-BY-4.0 (http://creativecommons.org/licenses/by/4.0/)",
      "source": "https://sketchfab.com/3d-models/old-phone-91903199dee5422484d0aa2ea266dd09",
      "title": "Old Phone"
    },
    "generator": "Sketchfab-12.66.0",
    "version": "2.0"
  },
  "bufferViews": [
    {
      "buffer": 0,
      "byteLength": 161304,
      "name": "floatBufferViews",
      "target": 34963
    },
    {
      "buffer": 0,
      "byteLength": 63600,
      "byteOffset": 161304,
      "byteStride": 8,
      "name": "floatBufferViews",
      "target": 34962
    },
    {
      "buffer": 0,
      "byteLength": 190800,
      "byteOffset": 224904,
      "byteStride": 12,
      "name": "floatBufferViews",
      "target": 34962
    },
    {
      "buffer": 0,
      "byteLength": 127200,
      "byteOffset": 415704,
      "byteStride": 16,
      "name": "floatBufferViews",
      "target": 34962
    }
  ],
  "buffers": [
    {
      "byteLength": 542904,
      "uri": "scene.bin"
    }
  ],
  "images": [
    {
      "uri": "textures/phone_baseColor.jpeg"
    },
    {
      "uri": "textures/phone_metallicRoughness.png"
    },
    {
      "uri": "textures/phone_normal.png"
    }
  ],
  "materials": [
    {
      "doubleSided": true,
      "name": "phone",
      "normalTexture": {
        "index": 2
      },
      "occlusionTexture": {
        "index": 1
      },
      "pbrMetallicRoughness": {
        "baseColorTexture": {
          "index": 0
        },
        "metallicFactor": 0.0,
        "metallicRoughnessTexture": {
          "index": 1
        },
        "roughnessFactor": 0.6279678845253513
      }
    }
  ],
  "meshes": [
    {
      "name": "Plane_phone_0",
      "primitives": [
        {
          "attributes": {
            "NORMAL": 1,
            "POSITION": 0,
            "TANGENT": 2,
            "TEXCOORD_0": 3
          },
          "indices": 4,
          "material": 0,
          "mode": 4
        }
      ]
    }
  ],
  "nodes": [
    {
      "children": [
        1
      ],
      "matrix": [
        1.0,
        0.0,
        0.0,
        0.0,
        0.0,
        2.220446049250313e-16,
        -1.0,
        0.0,
        0.0,
        1.0,
        2.220446049250313e-16,
        0.0,
        0.0,
        0.0,
        0.0,
        1.0
      ],
      "name": "Sketchfab_model"
    },
    {
      "children": [
        2
      ],
      "matrix": [
        1.0,
        0.0,
        0.0,
        0.0,
        0.0,
        0.0,
        1.0,
        0.0,
        0.0,
        -1.0,
        0.0,
        0.0,
        0.0,
        0.0,
        0.0,
        1.0
      ],
      "name": "bf494b55fbbb46d7903f72dddad5520d.fbx"
    },
    {
      "children": [
        3,
        5
      ],
      "name": "RootNode"
    },
    {
      "children": [
        4
      ],
      "matrix": [
        44.28535083913947,
        -22.20148726215496,
        -86.86714072952932,
        0.0,
        9.32716415982596,
        97.50081566829094,
        -20.1641997796493,
        0.0,
        89.17292980796222,
        0.8275458626691795,
        45.24935090484086,
        0.0,
        -473.6233215332031,
        282.91632080078125,
        892.1729736328125,
        1.0
      ],
      "name": "Camera"
    },
    {
      "name": "Object_4"
    },
    {
      "children": [
        6
      ],
      "matrix": [
        3.1123935470460653,
        3.2922987805302326,
        -3.292298951515917,
        0.0,
        -4.656014500560819,
        2.2007947538811496,
        -2.200795161314842,
        0.0,
        -1.7232230823141814e-07,
        3.960142684131153,
        3.960142315555102,
        0.0,
        26.166715621948242,
        73.51448059082031,
        68.03137969970703,
        1.0
      ],
      "name": "Plane"
    },
    {
      "mesh": 0,
      "name": "Plane_phone_0"
    }
  ],
  "samplers": [
    {
      "magFilter": 9729,
      "minFilter": 9987,
      "wrapS": 10497,
      "wrapT": 10497
    }
  ],
  "scene": 0,
  "scenes": [
    {
      "name": "Sketchfab_Scene",
      "nodes": [
        0
      ]
    }
  ],
  "textures": [
    {
      "sampler": 0,
      "source": 0
    },
    {
      "sampler": 0,
      "source": 1
    },
    {
      "sampler": 0,
      "source": 2
    }
  ]
}
